<svg width="15" height="21" viewBox="0 0 15 21" fill="none" xmlns="http://www.w3.org/2000/svg">
<path d="M7.42175 4.13477C5.48324 4.13477 3.90613 5.71188 3.90613 7.65039C3.90613 9.58891 5.48324 11.166 7.42175 11.166C9.36027 11.166 10.9374 9.58891 10.9374 7.65039C10.9374 5.71188 9.36027 4.13477 7.42175 4.13477ZM7.42175 10.3848C5.91402 10.3848 4.68738 9.15812 4.68738 7.65039C4.68738 6.14266 5.91402 4.91602 7.42175 4.91602C8.92949 4.91602 10.1561 6.14266 10.1561 7.65039C10.1561 9.15812 8.92949 10.3848 7.42175 10.3848Z" fill="#DEDEDE"/>
<path d="M10.9374 15.3066C11.1531 15.3066 11.328 15.1318 11.328 14.916C11.328 14.7003 11.1531 14.5254 10.9374 14.5254C10.7216 14.5254 10.5468 14.7003 10.5468 14.916C10.5468 15.1318 10.7216 15.3066 10.9374 15.3066Z" fill="white"/>
<path d="M12.7312 11.6399L11.6043 13.2361C11.4798 13.4124 11.5218 13.6561 11.698 13.7805C11.8743 13.905 12.1181 13.8629 12.2425 13.6867L13.3662 12.095C14.3328 10.8041 14.8436 9.26734 14.8436 7.65039C14.8436 3.55793 11.5142 0.228516 7.42175 0.228516C3.32929 0.228516 -0.00012207 3.55793 -0.00012207 7.65039C-0.00012207 9.26734 0.510698 10.8041 1.4773 12.095L6.66781 19.4473H1.56238C1.34667 19.4473 1.17175 19.6221 1.17175 19.8379C1.17175 20.0536 1.34667 20.2285 1.56238 20.2285H13.2811C13.4968 20.2285 13.6718 20.0536 13.6718 19.8379C13.6718 19.6221 13.4968 19.4473 13.2811 19.4473H8.1757L10.216 16.5573C10.3404 16.381 10.2984 16.1373 10.1222 16.0129C9.94585 15.8884 9.70214 15.9304 9.57777 16.1067L7.42175 19.1606C7.42175 19.1606 2.108 11.6339 2.10574 11.6309C1.23921 10.4753 0.781128 9.09887 0.781128 7.65039C0.781128 3.98875 3.76011 1.00977 7.42175 1.00977C11.0834 1.00977 14.0624 3.98875 14.0624 7.65039C14.0624 9.09887 13.6043 10.4753 12.7378 11.6309C12.7355 11.6339 12.7333 11.6369 12.7312 11.6399V11.6399Z" fill="#DEDEDE"/>
</svg>
