<svg width="175" height="52" viewBox="0 0 175 52" fill="none" xmlns="http://www.w3.org/2000/svg">
<path d="M0.840641 21.5074C0.447105 40.3979 7.71437 48.9342 19.0423 50.5318C49.7391 54.8609 53.806 32.986 52.0023 21.5074C47.6733 -1.71207 30.1408 -1.35119 19.0423 1.33791C10.1078 3.50265 1.0258 12.6193 0.840641 21.5074Z" fill="#FF014F"/>
<path d="M2.89763 28.5685L18.3176 16.0088L40.4841 31.6492L24.823 49.6594C19.2332 50.0386 12.6958 47.1317 10.1258 45.6308C3.57226 41.2705 2.57638 32.4391 2.89763 28.5685Z" fill="url(#paint0_linear_0_1442)"/>
<path d="M17.1362 18.8211C16.9221 29.0947 20.8745 33.7372 27.0352 34.6061C43.7298 36.9605 45.9416 25.0637 44.9607 18.8211C42.6063 6.19304 33.0712 6.38931 27.0352 7.85179C22.1762 9.02909 17.2369 13.9872 17.1362 18.8211Z" fill="white"/>
<path d="M63.8381 32.5884V18.5884H66.3981L72.9781 28.4484V18.5884H75.5381V32.5884H72.9781L66.3981 22.7484V32.5884H63.8381ZM78.2522 32.5884V18.5884H87.2922V20.6484H80.8122V24.5684H86.0522V26.5884H80.8122V32.5884H78.2522ZM92.5278 32.5884V20.6484H88.4478V18.5884H99.1878V20.6484H95.0878V32.5884H92.5278ZM111.97 32.8284C110.65 32.8284 109.496 32.5284 108.51 31.9284C107.523 31.3284 106.756 30.495 106.21 29.4284C105.663 28.3484 105.39 27.095 105.39 25.6684C105.39 24.2284 105.67 22.9617 106.23 21.8684C106.803 20.7617 107.61 19.9017 108.65 19.2884C109.703 18.6617 110.95 18.3484 112.39 18.3484C114.03 18.3484 115.39 18.7417 116.47 19.5284C117.55 20.315 118.25 21.4017 118.57 22.7884H115.71C115.496 22.135 115.11 21.6284 114.55 21.2684C113.99 20.895 113.27 20.7084 112.39 20.7084C110.99 20.7084 109.91 21.155 109.15 22.0484C108.39 22.9284 108.01 24.1417 108.01 25.6884C108.01 27.235 108.383 28.435 109.13 29.2884C109.89 30.1284 110.916 30.5484 112.21 30.5484C113.476 30.5484 114.43 30.2084 115.07 29.5284C115.723 28.835 116.116 27.9284 116.25 26.8084H112.71V24.8884H118.83V32.5884H116.47L116.27 30.7484C115.816 31.415 115.25 31.9284 114.57 32.2884C113.89 32.6484 113.023 32.8284 111.97 32.8284ZM124.679 32.8284C123.825 32.8284 123.125 32.695 122.579 32.4284C122.032 32.1484 121.625 31.7817 121.359 31.3284C121.092 30.875 120.959 30.375 120.959 29.8284C120.959 28.9084 121.319 28.1617 122.039 27.5884C122.759 27.015 123.839 26.7284 125.279 26.7284H127.799V26.4884C127.799 25.8084 127.605 25.3084 127.219 24.9884C126.832 24.6684 126.352 24.5084 125.779 24.5084C125.259 24.5084 124.805 24.635 124.419 24.8884C124.032 25.1284 123.792 25.4884 123.699 25.9684H121.199C121.265 25.2484 121.505 24.6217 121.919 24.0884C122.345 23.555 122.892 23.1484 123.559 22.8684C124.225 22.575 124.972 22.4284 125.799 22.4284C127.212 22.4284 128.325 22.7817 129.139 23.4884C129.952 24.195 130.359 25.195 130.359 26.4884V32.5884H128.179L127.939 30.9884C127.645 31.5217 127.232 31.9617 126.699 32.3084C126.179 32.655 125.505 32.8284 124.679 32.8284ZM125.259 30.8284C125.992 30.8284 126.559 30.5884 126.959 30.1084C127.372 29.6284 127.632 29.035 127.739 28.3284H125.559C124.879 28.3284 124.392 28.455 124.099 28.7084C123.805 28.9484 123.659 29.2484 123.659 29.6084C123.659 29.995 123.805 30.295 124.099 30.5084C124.392 30.7217 124.779 30.8284 125.259 30.8284ZM132.802 32.5884V18.1884H135.362V32.5884H132.802ZM137.977 32.5884V18.1884H140.537V32.5884H137.977ZM147.973 32.8284C146.973 32.8284 146.086 32.615 145.313 32.1884C144.54 31.7617 143.933 31.1617 143.493 30.3884C143.053 29.615 142.833 28.7217 142.833 27.7084C142.833 26.6817 143.046 25.7684 143.473 24.9684C143.913 24.1684 144.513 23.5484 145.273 23.1084C146.046 22.655 146.953 22.4284 147.993 22.4284C148.966 22.4284 149.826 22.6417 150.573 23.0684C151.32 23.495 151.9 24.0817 152.313 24.8284C152.74 25.5617 152.953 26.3817 152.953 27.2884C152.953 27.435 152.946 27.5884 152.933 27.7484C152.933 27.9084 152.926 28.075 152.913 28.2484H145.373C145.426 29.0217 145.693 29.6284 146.173 30.0684C146.666 30.5084 147.26 30.7284 147.953 30.7284C148.473 30.7284 148.906 30.615 149.253 30.3884C149.613 30.1484 149.88 29.8417 150.053 29.4684H152.653C152.466 30.095 152.153 30.6684 151.713 31.1884C151.286 31.695 150.753 32.095 150.113 32.3884C149.486 32.6817 148.773 32.8284 147.973 32.8284ZM147.993 24.5084C147.366 24.5084 146.813 24.6884 146.333 25.0484C145.853 25.395 145.546 25.9284 145.413 26.6484H150.353C150.313 25.995 150.073 25.475 149.633 25.0884C149.193 24.7017 148.646 24.5084 147.993 24.5084ZM155.106 32.5884V22.6684H157.386L157.626 24.5284C157.986 23.8884 158.473 23.3817 159.086 23.0084C159.713 22.6217 160.446 22.4284 161.286 22.4284V25.1284H160.566C160.006 25.1284 159.506 25.215 159.066 25.3884C158.626 25.5617 158.28 25.8617 158.026 26.2884C157.786 26.715 157.666 27.3084 157.666 28.0684V32.5884H155.106ZM164.276 36.9884L166.576 31.9284H165.976L162.116 22.6684H164.896L167.676 29.6484L170.576 22.6684H173.296L166.996 36.9884H164.276Z" fill="white"/>
<defs>
<linearGradient id="paint0_linear_0_1442" x1="29.8827" y1="24.066" x2="8.52492" y2="43.8507" gradientUnits="userSpaceOnUse">
<stop stop-color="#B6315A"/>
<stop offset="1" stop-color="#FE004E" stop-opacity="0.58"/>
</linearGradient>
</defs>
</svg>
