<svg width="20" height="15" viewBox="0 0 20 15" fill="none" xmlns="http://www.w3.org/2000/svg">
<path d="M18.0308 14.7937H1.96894C1.44687 14.7931 0.946346 14.5854 0.577198 14.2163C0.20805 13.8471 0.000425728 13.3465 -0.00012207 12.8245V2.9048C0.000425728 2.38272 0.20805 1.88218 0.577198 1.513C0.946346 1.14382 1.44687 0.936145 1.96894 0.935547H18.0308C18.5529 0.936145 19.0534 1.14382 19.4226 1.513C19.7917 1.88218 19.9993 2.38272 19.9999 2.9048V12.8245C19.9993 13.3465 19.7917 13.8471 19.4226 14.2163C19.0534 14.5854 18.5529 14.7931 18.0308 14.7937V14.7937ZM1.96894 1.68818C1.6464 1.68853 1.33717 1.81682 1.10911 2.04491C0.881056 2.27301 0.752806 2.58226 0.752507 2.9048V12.8245C0.752806 13.147 0.881056 13.4563 1.10911 13.6843C1.33717 13.9124 1.6464 14.0407 1.96894 14.0411H18.0308C18.3534 14.0407 18.6626 13.9124 18.8906 13.6843C19.1187 13.4563 19.2469 13.147 19.2472 12.8245V2.9048C19.2469 2.58226 19.1187 2.27301 18.8906 2.04491C18.6626 1.81682 18.3534 1.68853 18.0308 1.68818H1.96894Z" fill="#DEDEDE"/>
<path d="M9.99989 10.0793C9.90815 10.0794 9.81956 10.0459 9.75076 9.98523L0.68158 1.97951L1.17963 1.41504L9.99989 9.20174L18.8205 1.41598L19.3186 1.98045L10.2494 9.98617C10.1804 10.0467 10.0916 10.0798 9.99989 10.0793V10.0793Z" fill="#DEDEDE"/>
<path d="M0.476929 13.6118L6.56951 6.66996L7.13549 7.1667L1.04291 14.1086L0.476929 13.6118Z" fill="#DEDEDE"/>
<path d="M12.8834 7.15967L13.4494 6.66293L19.5421 13.6049L18.9761 14.1017L12.8834 7.15967Z" fill="white"/>
</svg>
