<svg width="147" height="91" viewBox="0 0 147 91" fill="none" xmlns="http://www.w3.org/2000/svg">
<circle cx="18.1042" cy="17.8447" r="17.5" fill="white"/>
<path d="M19.6532 27.8447V18.7225H22.7139L23.1731 15.1663H19.6532V12.8962C19.6532 11.8669 19.9378 11.1655 21.4155 11.1655L23.297 11.1647V7.98396C22.9716 7.94167 21.8547 7.84473 20.5547 7.84473C17.8401 7.84473 15.9816 9.50169 15.9816 12.544V15.1663H12.9116V18.7225H15.9816V27.8447H19.6532Z" fill="#FF014F"/>
<circle cx="73.3165" cy="72.96" r="17.5" fill="white"/>
<path d="M82.9045 68.1492C82.6739 67.2924 81.9984 66.617 81.1418 66.3863C79.5767 65.958 73.3163 65.958 73.3163 65.958C73.3163 65.958 67.0561 65.958 65.491 66.37C64.6509 66.6006 63.9589 67.2925 63.7284 68.1492C63.3165 69.7141 63.3165 72.9596 63.3165 72.9596C63.3165 72.9596 63.3165 76.2215 63.7284 77.7701C63.9591 78.6267 64.6344 79.3022 65.4912 79.5329C67.0726 79.9612 73.3165 79.9612 73.3165 79.9612C73.3165 79.9612 79.5767 79.9612 81.1418 79.5493C81.9985 79.3187 82.6739 78.6432 82.9046 77.7866C83.3164 76.2215 83.3164 72.9761 83.3164 72.9761C83.3164 72.9761 83.3329 69.7141 82.9045 68.1492Z" fill="#FF014F"/>
<path d="M71.3231 75.9581L76.5289 72.9598L71.3231 69.9614V75.9581Z" fill="white"/>
<circle cx="129.162" cy="17.8447" r="17.5" fill="white"/>
<path d="M129.162 7.84473C123.648 7.84473 119.162 12.3305 119.162 17.8447C119.162 19.7259 119.685 21.552 120.676 23.1378C120.281 24.5217 119.568 27.1393 119.56 27.1666C119.523 27.302 119.563 27.4466 119.664 27.544C119.765 27.6413 119.911 27.6759 120.044 27.6351L124.008 26.4159C125.561 27.3513 127.339 27.8447 129.162 27.8447C134.676 27.8447 139.162 23.359 139.162 17.8447C139.162 12.3305 134.676 7.84473 129.162 7.84473ZM129.162 27.0755C127.424 27.0755 125.731 26.5897 124.266 25.6713C124.204 25.6324 124.132 25.6128 124.061 25.6128C124.023 25.6128 123.985 25.6186 123.948 25.6297L120.487 26.6951C120.741 25.767 121.198 24.107 121.463 23.1836C121.494 23.0767 121.477 22.9613 121.416 22.8678C120.445 21.3728 119.931 19.6359 119.931 17.8447C119.931 12.7551 124.072 8.61396 129.162 8.61396C134.252 8.61396 138.393 12.7551 138.393 17.8447C138.393 22.9343 134.252 27.0755 129.162 27.0755Z" fill="#FF014F"/>
<path d="M135.695 20.2008C134.985 19.8066 134.38 19.4112 133.939 19.1227C133.602 18.9027 133.359 18.7439 133.18 18.6543C132.681 18.4054 132.303 18.5812 132.159 18.7266C132.141 18.7446 132.125 18.7643 132.111 18.785C131.593 19.5623 130.917 20.3058 130.719 20.3458C130.49 20.31 129.419 19.7012 128.354 18.8146C127.267 17.9089 126.583 17.0416 126.483 16.4508C127.18 15.7331 127.431 15.2816 127.431 14.7677C127.431 14.2381 126.196 12.027 125.972 11.8035C125.748 11.5796 125.243 11.5446 124.471 11.6985C124.397 11.7135 124.329 11.75 124.275 11.8035C124.181 11.897 121.994 14.1266 123.034 16.8289C124.174 19.7946 127.102 23.242 130.836 23.802C131.26 23.8654 131.657 23.897 132.03 23.897C134.226 23.897 135.522 22.792 135.887 20.6C135.914 20.4396 135.837 20.2796 135.695 20.2008ZM130.95 23.0412C127.002 22.4493 124.516 18.5381 123.752 16.5527C122.994 14.5835 124.391 12.8277 124.742 12.4308C125.027 12.3823 125.328 12.362 125.453 12.3816C125.715 12.7458 126.622 14.4593 126.662 14.7677C126.662 14.9696 126.596 15.2508 125.813 16.0343C125.741 16.1062 125.701 16.2039 125.701 16.3062C125.701 18.32 129.948 21.1139 130.701 21.1139C131.355 21.1139 132.208 20.0143 132.694 19.2977C132.722 19.2989 132.769 19.3085 132.836 19.3423C132.975 19.412 133.215 19.5685 133.518 19.767C133.919 20.0289 134.451 20.3766 135.08 20.737C134.794 22.11 133.997 23.4989 130.95 23.0412Z" fill="#FF014F"/>
<circle cx="18.1042" cy="72.96" r="17.5" fill="white"/>
<path d="M28.1042 66.7473C27.3542 67.0723 26.5792 67.2973 25.7542 67.3973C26.6042 66.8973 27.2542 66.0973 27.5542 65.1223C26.7542 65.5973 25.8792 65.9223 24.9542 66.1223C24.2042 65.3223 23.1292 64.8223 21.9542 64.8223C19.6792 64.8223 17.8542 66.6723 17.8542 68.9223C17.8542 69.2473 17.8792 69.5473 17.9542 69.8473C14.5542 69.6973 11.5542 68.0473 9.52925 65.5723C8.07925 68.1723 9.70425 70.3223 10.7792 71.0473C10.1292 71.0473 9.47925 70.8473 8.92925 70.5473C8.92925 72.5723 10.3542 74.2473 12.2042 74.6223C11.8042 74.7473 10.9042 74.8223 10.3542 74.6973C10.8792 76.3223 12.4042 77.5223 14.1792 77.5473C12.7792 78.6473 10.7292 79.5223 8.10425 79.2473C9.92925 80.4223 12.0792 81.0973 14.4042 81.0973C21.9542 81.0973 26.0542 74.8473 26.0542 69.4473C26.0542 69.2723 26.0542 69.0973 26.0292 68.9223C26.8792 68.2973 27.5792 67.5723 28.1042 66.7473V66.7473Z" fill="#FF014F"/>
<circle cx="73.3165" cy="17.8447" r="17.5" fill="white"/>
<path d="M77.9027 7.84473H68.7303C65.7451 7.84473 63.3165 10.2733 63.3165 13.2585V22.4311C63.3165 25.4161 65.7451 27.8447 68.7303 27.8447H77.9029C80.8879 27.8447 83.3165 25.4161 83.3165 22.4311V13.2585C83.3165 10.2733 80.8879 7.84473 77.9027 7.84473V7.84473ZM82.144 22.4311C82.144 24.7696 80.2414 26.6722 77.9027 26.6722H68.7303C66.3916 26.6722 64.489 24.7696 64.489 22.4311V13.2585C64.489 10.9198 66.3916 9.01721 68.7303 9.01721H77.9029C80.2414 9.01721 82.144 10.9198 82.144 13.2585V22.4311Z" fill="#FF014F"/>
<path d="M73.3165 12.376C70.3011 12.376 67.8479 14.8291 67.8479 17.8446C67.8479 20.86 70.3011 23.3132 73.3165 23.3132C76.332 23.3132 78.7851 20.86 78.7851 17.8446C78.7851 14.8291 76.332 12.376 73.3165 12.376V12.376ZM73.3165 22.1407C70.9478 22.1407 69.0204 20.2135 69.0204 17.8446C69.0204 15.4758 70.9478 13.5485 73.3165 13.5485C75.6855 13.5485 77.6126 15.4758 77.6126 17.8446C77.6126 20.2135 75.6855 22.1407 73.3165 22.1407V22.1407Z" fill="#FF014F"/>
<path d="M78.9159 10.4341C78.0248 10.4341 77.3 11.159 77.3 12.05C77.3 12.9411 78.0248 13.666 78.9159 13.666C79.807 13.666 80.532 12.9411 80.532 12.05C80.532 11.1589 79.807 10.4341 78.9159 10.4341ZM78.9159 12.4934C78.6714 12.4934 78.4725 12.2944 78.4725 12.05C78.4725 11.8054 78.6714 11.6066 78.9159 11.6066C79.1605 11.6066 79.3595 11.8054 79.3595 12.05C79.3595 12.2944 79.1605 12.4934 78.9159 12.4934Z" fill="#FF014F"/>
</svg>
