<svg width="18" height="21" viewBox="0 0 18 21" fill="none" xmlns="http://www.w3.org/2000/svg">
<path d="M15.5833 7.02315C15.5833 3.24469 12.5203 0.181641 8.7418 0.181641C4.96334 0.181641 1.9003 3.24469 1.9003 7.02315C0.923481 7.14477 -0.00012207 7.78331 -0.00012207 9.26564V12.8384C-0.00012207 14.5108 1.17054 15.1189 2.28038 15.1189H3.38262C3.59252 15.1189 3.76271 14.9487 3.76271 14.7388V7.38042C3.76271 7.17052 3.59252 7.00034 3.38262 7.00034H2.66046C2.66046 3.64173 5.38319 0.919003 8.7418 0.919003C12.1004 0.919003 14.8231 3.64173 14.8231 7.00034H14.101C13.8911 7.00034 13.7209 7.17052 13.7209 7.38042V14.7274C13.7209 14.9373 13.8911 15.1075 14.101 15.1075H14.8231C14.7167 17.7187 13.4624 18.3306 10.9577 18.4409V18.1862C10.9577 17.7664 10.6174 17.426 10.1975 17.426H7.8068C7.38695 17.426 7.04663 17.7664 7.04663 18.1862V19.4215C7.04663 19.8413 7.38695 20.1816 7.8068 20.1816H10.2051C10.625 20.1816 10.9653 19.8413 10.9653 19.4215V19.201C13.375 19.0908 15.4579 18.5929 15.5833 15.0847C16.5601 14.9631 17.4837 14.3246 17.4837 12.8422V9.26944C17.4837 7.77951 16.5639 7.14477 15.5833 7.02315ZM3.00254 7.7339V14.3474H2.26138C1.69885 14.3474 0.741041 14.1497 0.741041 12.827V9.25424C0.741041 7.94295 1.68745 7.7339 2.26138 7.7339H3.00254V7.7339ZM10.2051 18.8475V19.4253H7.8068V18.19H10.2051V18.8475ZM16.7236 12.8384C16.7236 14.1497 15.7771 14.3588 15.2032 14.3588H14.4811V7.76051H15.2222C15.7848 7.76051 16.7426 7.95815 16.7426 9.28084L16.7236 12.8384Z" fill="#DEDEDE"/>
</svg>
